HIERARCHY
ROOT Hips
{
 OFFSET 0.000000 0.000000 0.000000
 CHANNELS 6 Xposition Yposition Zposition Yrotation Xrotation Zrotation
 JOINT Chest
 {
  OFFSET 0.000000 9.588913 -0.003946
  CHANNELS 3 Yrotation Xrotation Zrotation
  JOINT Chest2
  {
   OFFSET 0.000000 9.541882 0.008053
   CHANNELS 3 Yrotation Xrotation Zrotation
   JOINT Chest3
   {
    OFFSET 0.000000 9.501360 0.000000
    CHANNELS 3 Yrotation Xrotation Zrotation
    JOINT Chest4
    {
     OFFSET 0.000000 9.491660 0.000000
     CHANNELS 3 Yrotation Xrotation Zrotation
     JOINT Neck
     {
      OFFSET 0.000000 14.331917 0.000000
      CHANNELS 3 Yrotation Xrotation Zrotation
      JOINT Head
      {
       OFFSET 0.000000 8.884799 0.017034
       CHANNELS 3 Yrotation Xrotation Zrotation
       End Site
       {
        OFFSET 0.000000 16.896195 0.008993
       }
      }
     }
     JOINT RightCollar
     {
      OFFSET -2.923010 9.499495 0.000000
      CHANNELS 3 Yrotation Xrotation Zrotation
      JOINT RightShoulder
      {
       OFFSET -13.795216 0.000000 0.000000
       CHANNELS 3 Yrotation Xrotation Zrotation
       JOINT RightElbow
       {
        OFFSET -30.272209 0.000000 0.000000
        CHANNELS 3 Yrotation Xrotation Zrotation
        JOINT RightWrist
        {
         OFFSET -24.478199 0.000000 0.000000
         CHANNELS 3 Yrotation Xrotation Zrotation
         End Site
         {
          OFFSET -18.090752 0.000000 0.000000
         }
        }
       }
      }
     }
     JOINT LeftCollar
     {
      OFFSET 2.923010 9.499495 0.000000
      CHANNELS 3 Yrotation Xrotation Zrotation
      JOINT LeftShoulder
      {
       OFFSET 13.795216 0.000000 0.000000
       CHANNELS 3 Yrotation Xrotation Zrotation
       JOINT LeftElbow
       {
        OFFSET 30.272209 0.000000 0.000000
        CHANNELS 3 Yrotation Xrotation Zrotation
        JOINT LeftWrist
        {
         OFFSET 24.478199 0.000000 0.000000
         CHANNELS 3 Yrotation Xrotation Zrotation
         End Site
         {
          OFFSET 18.090752 0.000000 0.000000
         }
        }
       }
      }
     }
    }
   }
  }
 }
 JOINT RightHip
 {
  OFFSET -7.826875 0.019532 0.001973
  CHANNELS 3 Yrotation Xrotation Zrotation
  JOINT RightKnee
  {
   OFFSET 0.000000 -40.546152 -0.001885
   CHANNELS 3 Yrotation Xrotation Zrotation
   JOINT RightAnkle
   {
    OFFSET 0.000000 -39.417092 -0.003189
    CHANNELS 3 Yrotation Xrotation Zrotation
    JOINT RightToe
    {
     OFFSET 0.000000 -7.579396 17.243563
     CHANNELS 3 Yrotation Xrotation Zrotation
     End Site
     {
      OFFSET 0.000000 -1.500329 6.694466
     }
    }
   }
  }
 }
 JOINT LeftHip
 {
  OFFSET 7.826875 0.019532 0.001973
  CHANNELS 3 Yrotation Xrotation Zrotation
  JOINT LeftKnee
  {
   OFFSET 0.000000 -40.546152 -0.001885
   CHANNELS 3 Yrotation Xrotation Zrotation
   JOINT LeftAnkle
   {
    OFFSET 0.000000 -39.417092 -0.003189
    CHANNELS 3 Yrotation Xrotation Zrotation
    JOINT LeftToe
    {
     OFFSET 0.000000 -7.579396 17.243563
     CHANNELS 3 Yrotation Xrotation Zrotation
     End Site
     {
      OFFSET 0.000000 -1.500329 6.694466
     }
    }
   }
  }
 }
}
MOTION
Frames: 8
Frame Time: 0.008333
8.987601 88.833611 -43.237268 -104.588861 -12.180426 0.942940 -2.966104 4.661152 0.048894 -1.619856 2.717552 0.065438 -2.024908 3.397155 0.069793 -1.619861 2.717570 0.065438 1.129234 28.202639 -1.544462 1.594565 5.459599 -1.957815 -2.163598 1.090588 -7.901776 -6.460758 -0.060006 85.476921 7.256775 5.819991 0.746406 -2.363050 1.981563 -3.465935 9.039094 -0.520039 1.499783 19.410012 6.450361 -79.759200 -26.769581 11.490273 -12.282878 5.282381 -6.714727 6.306488 17.692617 16.186292 4.788551 15.899247 6.564677 5.831068 -0.612828 -8.746609 -8.496774 0.058647 -0.218848 -0.036899 -3.723071 -15.598220 -10.391622 65.390956 24.959686 40.853992 -29.543574 -10.523234 -3.999537 0.525408 4.876277 0.694617
8.626463 88.803264 -43.474713 -105.410431 -12.234827 1.051538 -3.024746 4.645067 0.016131 -1.660906 2.707474 0.047974 -2.076361 3.384482 0.047699 -1.660911 2.707493 0.047974 1.311361 28.153796 -1.590930 1.805826 5.402343 -2.050397 -2.214411 1.116803 -7.920375 -6.328005 0.025114 85.785789 7.250683 6.046346 0.775600 -2.426186 2.036729 -3.377451 9.031857 -0.570377 1.471538 18.936972 6.410348 -80.129875 -27.160672 11.486223 -12.780819 5.308739 -6.687466 6.118365 18.068347 16.390522 4.835708 16.037267 6.655154 5.966077 -0.427306 -8.864487 -8.705108 0.044806 -0.226881 -0.067307 -3.304115 -15.740448 -10.546681 64.031171 23.913582 40.206733 -29.497375 -10.389648 -4.492678 0.510792 5.012943 0.568931
8.261532 88.770038 -43.714449 -106.212478 -12.269419 1.156562 -3.089646 4.611821 -0.018594 -1.703791 2.697260 0.032926 -2.130090 3.371647 0.028614 -1.703796 2.697280 0.032926 1.488370 28.106320 -1.646999 2.013683 5.347643 -2.152465 -2.260874 1.148747 -7.941466 -6.192994 0.113157 86.086530 7.232978 6.308388 0.809013 -2.489184 2.101170 -3.283049 9.026145 -0.617840 1.435457 18.498004 6.359476 -80.466559 -27.615611 11.512691 -13.345738 5.287999 -6.662695 5.914775 18.432382 16.577732 4.887213 16.160317 6.753226 6.090144 -0.246800 -8.983336 -8.910308 0.036218 -0.239406 -0.093091 -2.912671 -15.872037 -10.654149 62.695350 22.833655 39.555288 -29.476576 -10.245721 -4.947127 0.449495 5.140174 0.414549
7.894286 88.733573 -43.956274 -106.990267 -12.283811 1.253489 -3.163913 4.561213 -0.050612 -1.748036 2.686976 0.020002 -2.185503 3.358729 0.012179 -1.748041 2.686995 0.020002 1.659954 28.058800 -1.709109 2.216993 5.293546 -2.260015 -2.301584 1.187791 -7.965421 -6.048647 0.201011 86.377907 7.198236 6.586468 0.842898 -2.548858 2.168399 -3.180631 9.019374 -0.667394 1.394353 18.086871 6.308916 -80.771845 -28.131993 11.542946 -13.973660 5.227521 -6.651088 5.707166 18.776701 16.746823 4.943129 16.259527 6.859774 6.204949 -0.061018 -9.103882 -9.111484 0.030976 -0.255305 -0.116493 -2.565696 -15.999210 -10.710189 61.394727 21.728010 38.895130 -29.453332 -10.091289 -5.377372 0.356755 5.255057 0.247924
7.524605 88.693959 -44.203119 -107.749046 -12.291728 1.324290 -3.240518 4.506367 -0.059499 -1.793518 2.676711 0.008592 -2.242450 3.345841 -0.002371 -1.793523 2.676731 0.008591 1.826161 28.009941 -1.773213 2.414881 5.238215 -2.368585 -2.335079 1.235284 -7.992383 -5.891557 0.287226 86.660028 7.145857 6.866149 0.871246 -2.609297 2.237207 -3.067922 9.011013 -0.719561 1.352080 17.691029 6.252991 -81.044978 -28.697192 11.551943 -14.662244 5.143796 -6.657183 5.514732 19.106784 16.907524 5.020768 16.338711 6.969139 6.315339 0.136075 -9.220872 -9.303820 0.023335 -0.276138 -0.143995 -2.268290 -16.106694 -10.699252 60.125927 20.603943 38.221411 -29.363565 -9.932465 -5.825739 0.294744 5.358786 0.105314
7.152319 88.651071 -44.453381 -108.488964 -12.298092 1.375550 -3.320944 4.452557 -0.052160 -1.840351 2.666287 -0.002391 -2.301083 3.332752 -0.016393 -1.840356 2.666308 -0.002392 1.990650 27.958070 -1.834963 2.610379 5.179437 -2.474200 -2.362272 1.288597 -8.020606 -5.718633 0.375467 86.935896 7.076441 7.137010 0.889932 -2.673586 2.308168 -2.945473 9.000113 -0.772449 1.315220 17.299615 6.187781 -81.285969 -29.304889 11.521305 -15.403199 5.052847 -6.669995 5.347264 19.416198 17.067006 5.111305 16.414069 7.082093 6.423828 0.336071 -9.339286 -9.486114 0.012806 -0.298619 -0.175573 -2.016294 -16.185741 -10.626916 58.868931 19.471998 37.527897 -29.228702 -9.771169 -6.283852 0.262664 5.448842 -0.016698
6.777822 88.604550 -44.704596 -109.209889 -12.300551 1.416974 -3.405906 4.400573 -0.040975 -1.888058 2.655724 -0.013211 -2.360805 3.319486 -0.030214 -1.888062 2.655744 -0.013211 2.155709 27.901850 -1.890248 2.805059 5.115395 -2.572836 -2.389607 1.338250 -8.049414 -5.525165 0.472056 87.212875 6.989597 7.389825 0.897139 -2.743456 2.378477 -2.816370 8.987148 -0.828404 1.292236 16.909376 6.120405 -81.504433 -29.956944 11.452552 -16.182982 4.967613 -6.681242 5.203557 19.705969 17.222868 5.205850 16.500422 7.204037 6.528750 0.525152 -9.466291 -9.657054 0.000257 -0.318811 -0.208943 -1.806980 -16.238977 -10.500683 57.608084 18.349490 36.811905 -29.075298 -9.609714 -6.730118 0.233590 5.519775 -0.134026
6.402460 88.553795 -44.955799 -109.912685 -12.291541 1.447498 -3.496604 4.343847 -0.028144 -1.936118 2.644154 -0.023088 -2.420963 3.304965 -0.042850 -1.936123 2.644174 -0.023089 2.321715 27.843378 -1.939098 2.999372 5.048793 -2.664625 -2.422597 1.384473 -8.080366 -5.311092 0.575394 87.495763 6.886483 7.625108 0.892968 -2.823783 2.445915 -2.682550 8.981856 -0.884338 1.289768 16.514887 6.060287 -81.711284 -30.659922 11.359719 -16.999521 4.895261 -6.693999 5.081835 19.988230 17.363558 5.303028 16.598010 7.336042 6.634320 0.699974 -9.603229 -9.817433 -0.015760 -0.334854 -0.243649 -1.638868 -16.274622 -10.320071 56.329512 17.242378 36.071446 -28.901905 -9.438203 -7.167533 0.208924 5.564145 -0.244916
